<svg xmlns="http://www.w3.org/2000/svg" fill="none" viewBox="0 0 128 128">
    <path d="M10.126,79.322c-1.385,-4.868 -2.126,-10.009 -2.126,-15.322c0,-30.907 25.093,-56 56,-56c18.646,0 35.176,9.133 45.357,23.165l-18.052,32.835l18.052,32.835c-10.181,14.032 -26.711,23.165 -45.357,23.165c-18.646,0 -35.176,-9.133 -45.357,-23.165l18.052,-32.835l18.146,33.005l18.318,0l18.146,-33.005l-18.146,-33.005l-18.146,-0l18.146,33.005l-9.159,16.659l-27.305,-49.664l-26.569,48.327Zm107.748,-30.644c1.385,4.868 2.126,10.009 2.126,15.322c-0,5.313 -0.741,10.454 -2.126,15.322l-8.423,-15.322l8.423,-15.322Z" />
    <style>
        path { fill: #000; }
        @media (prefers-color-scheme: dark) {
            path { fill: #FFF; }
        }
    </style>
</svg>
